<?xml version="1.0" ?><!DOCTYPE svg  PUBLIC '-//W3C//DTD SVG 1.1 Tiny//EN'  'http://www.w3.org/Graphics/SVG/1.1/DTD/svg11-tiny.dtd'><svg baseProfile="tiny" version="1.1" viewBox="0 0 128 128" xml:space="preserve" xmlns="http://www.w3.org/2000/svg" xmlns:xlink="http://www.w3.org/1999/xlink"><g><g id="BACKGROUND"/><g id="Layer_3"><g><path d="M30.3,90.7h67.2c3.1,0,5.6-2.5,5.6-5.6V68.4c0-3.1-2.5-5.6-5.6-5.6l-4.3-33.3      c0-2.6-2.2-4.8-4.8-4.8H39.5c-2.6,0-4.8,2.2-4.8,4.8l-4.3,33.3c-3.1,0-5.6,2.5-5.6,5.6v16.7C24.7,88.2,27.3,90.7,30.3,90.7z" fill="#F68C29" fill-rule="evenodd"/><path d="M45.7,30.9h36.4c2.6,0,4.5,2.2,4.8,4.8L89.8,58c0.3,2.6-2.2,4.8-4.8,4.8H42.9      c-2.6,0-5.1-2.2-4.8-4.8l2.9-22.3C41.3,33.1,43.1,30.9,45.7,30.9z" fill="#E0ECC1" fill-rule="evenodd"/><path d="      M45.7,30.9h36.4c2.6,0,4.5,2.2,4.8,4.8L89.8,58c0.3,2.6-2.2,4.8-4.8,4.8H42.9c-2.6,0-5.1-2.2-4.8-4.8l2.9-22.3      C41.3,33.1,43.1,30.9,45.7,30.9z" fill="none" stroke="#D77827" stroke-linecap="round" stroke-linejoin="round" stroke-miterlimit="2.6131" stroke-width="3.2067"/><path d="M37.2,70.3L37.2,70.3c2.7,0,4.9,2.2,4.9,4.9v0c0,2.7-2.2,4.9-4.9,4.9h0      c-2.7,0-4.9-2.2-4.9-4.9v0C32.4,72.5,34.6,70.3,37.2,70.3z" fill="#F7D309" fill-rule="evenodd"/><path d="      M37.2,70.3L37.2,70.3c2.7,0,4.9,2.2,4.9,4.9v0c0,2.7-2.2,4.9-4.9,4.9h0c-2.7,0-4.9-2.2-4.9-4.9v0C32.4,72.5,34.6,70.3,37.2,70.3      z" fill="none" stroke="#D77827" stroke-linecap="round" stroke-linejoin="round" stroke-miterlimit="2.6131" stroke-width="3.2067"/><path d="M90.6,70.3L90.6,70.3c2.7,0,4.9,2.2,4.9,4.9v0c0,2.7-2.2,4.9-4.9,4.9h0      c-2.7,0-4.9-2.2-4.9-4.9v0C85.8,72.5,87.9,70.3,90.6,70.3z" fill="#F7D309" fill-rule="evenodd"/><path d="      M90.6,70.3L90.6,70.3c2.7,0,4.9,2.2,4.9,4.9v0c0,2.7-2.2,4.9-4.9,4.9h0c-2.7,0-4.9-2.2-4.9-4.9v0C85.8,72.5,87.9,70.3,90.6,70.3      z" fill="none" stroke="#D77827" stroke-linecap="round" stroke-linejoin="round" stroke-miterlimit="2.6131" stroke-width="3.2067"/><path d="M30.3,90.7H48v5.4c0,4-3.2,7.2-7.2,7.2h-3.3c-4,0-7.2-3.2-7.2-7.2V90.7z" fill="#002535" fill-rule="evenodd"/><path d="M79.8,90.7h17.7v5.4c0,4-3.2,7.2-7.2,7.2H87c-4,0-7.2-3.2-7.2-7.2V90.7z" fill="#002535" fill-rule="evenodd"/><path d="M49.3,70.3h29.3c0.9,0,1.7,0.8,1.7,1.7v0c0,0.9-0.8,1.7-1.7,1.7H49.3      c-0.9,0-1.7-0.8-1.7-1.7v0C47.6,71.1,48.4,70.3,49.3,70.3z" fill="#002535" fill-rule="evenodd"/><path d="M49.3,76.7h29.3c0.9,0,1.7,0.8,1.7,1.7v0c0,0.9-0.8,1.7-1.7,1.7H49.3      c-0.9,0-1.7-0.8-1.7-1.7v0C47.6,77.4,48.4,76.7,49.3,76.7z" fill="#002535" fill-rule="evenodd"/><path d="M21.1,54.5v-0.6c0-2,1.6-3.6,3.6-3.6H32L31,58h-6.3C22.7,58,21.1,56.4,21.1,54.5z" fill="#D77827" fill-rule="evenodd"/><path d="M106.7,54.5v-0.6c0-2-1.6-3.6-3.6-3.6h-7.3l1,7.7h6.3      C105.1,58,106.7,56.4,106.7,54.5z" fill="#D77827" fill-rule="evenodd"/><path d="M23.5,85.1h81c1.5,0,2.8,1.3,2.8,2.8c0,1.5-1.3,2.8-2.8,2.8h-81      c-1.5,0-2.8-1.3-2.8-2.8C20.7,86.4,22,85.1,23.5,85.1z" fill="#D77827" fill-rule="evenodd"/></g></g><g id="GUIDELINE"/></g></svg>